# xmcd
#
# Track frame offsets: 
#        150
#        12229
#        28124
#        35799
#        47241
#        60450
#        70384
#        78648
#        86799
#        96415
#        112814
#        126801
#        129078
#        138747
#        149748
#        161143
#        169394
#        179913
#        193048
#        205294
#        218503
#        230539
#        242428
#        255681
#        270697
#
# Disc length: 3762 seconds
#
# Revision: 0
# Processed by: cddbd v1.5.1PL2 Copyright (c) Steve Scherf et al.
# Submitted via: ExactAudioCopy v0.95b1
#
DISCID=810eb019
DTITLE=Johnny Cash and Carl Perkins - I Walk The Line - Little Fauss And
DTITLE=Big Halsey
DYEAR=1900
DGENRE=Country
TTITLE0=Flesh And Blood
TTITLE1=I Walk The Line (Complete Version)
TTITLE2=Hungry
TTITLE3=This Town
TTITLE4=This Side Of The Law
TTITLE5=Flesh And Blood (Instrumental)
TTITLE6='Cause I Love You
TTITLE7='Cause I Love You (String Instrumental)
TTITLE8=The World's Gonna Fall On You
TTITLE9=Face Of Despair
TTITLE10=Standing On The Promises - Amazing Grace
TTITLE11='Cause I Love You (String Instrumental)
TTITLE12=Amazing Grace
TTITLE13=Rollin' Free
TTITLE14=Ballad Of Little Fauss And Big Halsy
TTITLE15=Ballad Of Little Fauss And Big Halsy (Instrumental)
TTITLE16=706 Union
TTITLE17=Little Man
TTITLE18=Little Man (Instrumental)
TTITLE19=Wanted Man
TTITLE20=Rollin' Free (Instrumental)
TTITLE21=True Love Is Greater Than Friendship
TTITLE22=Little Man (Instrumental)
TTITLE23=True Love Is Greater Than Friendship (Instrumental)
TTITLE24=Movin'
EXTD=
EXTT0=
EXTT1=
EXTT2=
EXTT3=
EXTT4=
EXTT5=
EXTT6=
EXTT7=
EXTT8=
EXTT9=
EXTT10=
EXTT11=
EXTT12=
EXTT13=
EXTT14=
EXTT15=
EXTT16=
EXTT17=
EXTT18=
EXTT19=
EXTT20=
EXTT21=
EXTT22=
EXTT23=
EXTT24=
PLAYORDER=
